<?xml version="1.0" encoding="UTF-8"?>
<svg width="237px" height="166px" viewBox="0 0 237 166" version="1.1" xmlns="http://www.w3.org/2000/svg" xmlns:xlink="http://www.w3.org/1999/xlink">
    <!-- Generator: Sketch 50.2 (55047) - http://www.bohemiancoding.com/sketch -->
    <title>logo</title>
    <desc>Created with Sketch.</desc>
    <defs></defs>
    <g id="Page-1" stroke="none" stroke-width="1" fill="none" fill-rule="evenodd">
        <g id="logo" fill="#000000" fill-rule="nonzero">
            <polygon id="Fill-1" points="75.5029 96.2455 75.5029 98.4335 86.1709 98.4335 86.1709 127.3975 88.3549 127.3975 88.3549 98.4335 103.5419 98.4335 103.5419 96.2455"></polygon>
            <path d="M145.4922,125.8119 C137.7552,125.8119 131.4592,119.5179 131.4592,111.7799 C131.4592,104.0409 137.7552,97.7469 145.4922,97.7469 C153.2302,97.7469 159.5272,104.0409 159.5272,111.7799 C159.5272,119.5179 153.2302,125.8119 145.4922,125.8119 M145.4922,95.5519 C136.5502,95.5519 129.2712,102.8349 129.2712,111.7799 C129.2712,120.7249 136.5502,128.0009 145.4922,128.0009 C154.4372,128.0009 161.7132,120.7249 161.7132,111.7799 C161.7132,102.8349 154.4372,95.5519 145.4922,95.5519" id="Fill-2"></path>
            <path d="M116.0073,113.1683 C119.9753,111.2363 122.3403,107.5733 121.9133,103.9713 C121.3853,99.4733 116.6973,96.0783 111.0193,96.0783 C110.4493,96.0783 109.8713,96.1063 109.3013,96.1763 C108.8153,96.2343 108.3103,96.3223 107.7993,96.4383 L107.5853,96.4873 L107.5853,98.7403 L107.9273,98.6553 C108.4643,98.5183 109.0123,98.4153 109.5563,98.3483 C110.0493,98.2933 110.5503,98.2633 111.0393,98.2633 C115.5993,98.2633 119.3393,100.8293 119.7413,104.2263 C120.0983,107.2663 117.6953,110.3333 113.8913,111.6853 L112.4613,112.1953 L124.5523,127.5693 L127.3363,127.5693 L116.0073,113.1683 Z" id="Fill-4"></path>
            <path d="M220.1895,126.0306 C212.4535,126.0306 206.1585,119.7356 206.1585,111.9956 C206.1585,104.2566 212.4535,97.9626 220.1895,97.9626 C227.9295,97.9626 234.2265,104.2566 234.2265,111.9956 C234.2265,119.7356 227.9295,126.0306 220.1895,126.0306 M220.1895,95.7726 C211.2495,95.7726 203.9705,103.0516 203.9705,111.9956 C203.9705,120.9386 211.2495,128.2156 220.1895,128.2156 C229.1345,128.2156 236.4135,120.9386 236.4135,111.9956 C236.4135,103.0516 229.1345,95.7726 220.1895,95.7726" id="Fill-6"></path>
            <polygon id="Fill-8" points="186.5898 96.1742 186.5898 124.3032 164.3398 96.2782 164.2588 96.1742 161.4668 96.1742 186.1948 127.3232 186.2768 127.4262 188.7788 127.4262 188.7788 96.1742"></polygon>
            <polygon id="Fill-10" points="197.42 127.517 199.607 127.517 199.607 96.235 197.42 96.235"></polygon>
            <path d="M91.1929,150.7933 C95.1639,148.8563 97.5249,145.1983 97.0999,141.5943 C96.5679,137.0913 91.8849,133.7053 86.2069,133.7053 C85.6359,133.7053 85.0589,133.7333 84.4859,133.8043 C83.9909,133.8623 83.4869,133.9493 82.9859,134.0633 L82.7729,134.1083 L82.7729,136.3653 L83.1139,136.2753 C83.6549,136.1393 84.2039,136.0383 84.7409,135.9733 C85.2359,135.9143 85.7349,135.8903 86.2259,135.8903 C90.7859,135.8903 94.5259,138.4503 94.9279,141.8523 C95.2859,144.8893 92.8829,147.9563 89.0829,149.3113 L87.6459,149.8183 L99.7409,165.1923 L102.5249,165.1923 L91.1929,150.7933 Z" id="Fill-12"></path>
            <path d="M144.5391,150.8089 C143.7821,150.0699 142.9041,149.4309 141.9221,148.8939 C142.5981,148.4689 143.2001,147.9979 143.7191,147.4879 C145.6261,145.6229 146.5251,143.3039 146.2511,140.9659 C145.7441,136.6909 141.4761,133.5899 136.0941,133.5899 C135.5561,133.5899 135.0161,133.6209 134.4841,133.6859 C133.7341,133.7709 132.9631,133.9319 132.1971,134.1569 L132.0001,134.2149 L132.0001,136.5229 L132.3631,136.3959 C133.1361,136.1339 133.9351,135.9469 134.7401,135.8579 C135.1851,135.8029 135.6421,135.7749 136.0941,135.7749 C140.2781,135.7749 143.7131,138.1149 144.0811,141.2209 C144.2731,142.8739 143.6031,144.5439 142.1891,145.9269 C141.3961,146.7069 140.4091,147.3459 139.2671,147.8259 L139.0971,147.9239 L139.0971,149.8379 L139.1141,150.2179 L139.3831,150.1209 C140.7841,150.6429 142.0371,151.4169 143.0081,152.3719 C144.5571,153.8869 145.2881,155.7169 145.0751,157.5289 C144.6291,161.2859 140.0841,164.0059 134.8901,163.4029 C134.0271,163.3019 133.1761,163.1109 132.3631,162.8329 L132.0001,162.7109 L132.0001,165.0099 L132.1951,165.0729 C132.9871,165.3079 133.8071,165.4789 134.6351,165.5769 C135.2081,165.6419 135.7931,165.6789 136.3621,165.6789 C142.1311,165.6789 146.7071,162.3559 147.2471,157.7839 C147.5411,155.2829 146.5781,152.8079 144.5391,150.8089" id="Fill-13"></path>
            <polygon id="Fill-28" points="126.3193 136.1283 126.3193 133.9423 107.0683 133.9423 107.0683 165.1943 126.3193 165.1943 126.3193 163.0083 109.2543 163.0083 109.2543 150.7753 120.1683 150.7753 120.1683 148.5913 109.2543 148.5913 109.2543 136.1283"></polygon>
            <path d="M26.8872,82.4857 C26.8872,82.4857 13.4632,88.1827 13.3612,107.0997 C13.2582,126.0147 0.1372,131.8167 0.1372,131.8167 C29.5312,135.9867 28.8202,107.2007 27.2962,99.6737 C25.7702,92.1487 26.8872,82.4857 26.8872,82.4857" id="Fill-29"></path>
            <path d="M135.1758,27.9271 C134.1758,27.7811 126.8248,28.9251 126.1578,28.9251 C125.4868,28.9251 121.3358,30.5011 119.9048,30.9321 C118.4728,31.3621 111.8408,32.2711 110.3588,33.1261 C108.8798,33.9871 101.4808,38.4751 100.0978,39.1861 C99.0208,39.7451 95.9288,40.8421 93.7748,40.2741 C92.9018,39.9321 92.1178,39.1811 91.4218,38.3291 C91.3278,38.2051 91.2338,38.0871 91.1388,37.9651 C90.6568,37.3361 90.2168,36.6771 89.8278,36.1061 C88.6518,34.3861 86.5128,33.0451 85.0468,31.5331 C85.0268,31.5151 85.0088,31.4911 84.9898,31.4741 C84.8668,31.3191 84.7478,31.1621 84.6298,30.9991 C83.7108,29.5691 83.1968,27.0091 83.0168,25.9831 C83.3588,26.6311 84.5878,28.7551 87.2118,30.9791 C90.3618,33.6521 91.7448,35.0871 92.1758,35.4161 C92.6048,35.7531 93.5588,36.7521 94.9438,35.9431 C96.3278,35.1341 98.8088,33.0311 98.6198,31.6491 C98.4258,30.2641 96.1828,20.8131 95.8988,19.2351 C95.6128,17.6641 95.2778,14.0851 95.1808,12.8481 C95.0878,11.6061 93.4608,7.2721 92.6998,6.4541 C92.6998,6.4541 92.4138,1.9681 92.4618,0.8221 C92.4618,0.8221 90.7388,1.3641 89.4088,4.3741 C88.8948,4.4831 86.1718,5.0311 83.2008,5.1201 C79.9078,5.2151 73.7998,5.8791 68.6938,9.5541 C68.6938,9.5541 61.1048,14.3731 60.4378,23.8231 C59.7688,33.2721 60.0568,35.2311 59.7228,39.1461 C59.3868,43.0581 57.5728,48.0191 56.2388,49.8341 C54.9028,51.6471 48.1228,58.4701 44.1128,61.6191 C42.1928,63.1281 39.8678,64.7131 37.7368,66.3651 C37.7368,66.3651 16.1068,83.3721 39.4778,100.3521 C39.4778,100.3521 43.4728,102.8461 48.3668,103.7441 C48.3668,103.7441 50.1728,104.0671 48.4768,105.7661 C46.7788,107.4591 42.4008,112.9631 40.9628,114.6881 C40.9628,114.6881 39.2078,116.5321 41.1528,119.1881 C42.3058,120.7711 43.4228,123.1461 43.5398,124.3771 C43.7318,126.3351 43.3498,128.1961 43.0168,129.5771 C42.6828,130.9621 42.1098,132.7771 43.1578,132.8261 C44.2068,132.8721 48.7448,132.8261 48.7448,132.8261 C48.7448,132.8261 50.1268,132.7311 49.7458,131.5351 C49.4348,130.5641 47.2498,122.1151 46.6868,118.6641 C46.4718,117.3411 47.2528,116.7001 47.2528,116.7001 C47.7328,116.2751 48.4708,115.6411 49.3358,114.9021 C49.2918,116.1841 49.3898,117.6821 49.9378,118.7671 C51.0828,121.0631 54.3348,126.7391 54.0818,130.1801 C54.0818,130.1801 54.0428,132.3951 55.1458,132.4041 C56.2478,132.4121 60.1608,132.4041 60.1608,132.4041 C60.1608,132.4041 61.5388,132.0311 60.6478,130.5641 C59.7518,129.0961 53.1228,118.0021 55.6108,112.9051 C57.8358,108.3321 59.5488,106.4761 60.1568,105.2691 C61.2858,103.7231 62.0868,101.8821 61.4388,100.2761 C60.7608,98.5921 58.7178,94.9881 57.6478,92.1241 C57.6478,92.1241 56.1408,89.1401 59.2908,86.6131 C59.2908,86.6131 69.3628,78.1921 71.6058,76.3761 C71.6058,76.3761 79.4328,70.6831 82.3428,68.4421 C85.2548,66.2001 89.6928,61.9041 90.5998,58.3271 C91.5078,54.7441 91.1718,53.9371 94.0358,52.0291 C94.0358,52.0291 95.4668,50.7841 96.1358,51.3581 C96.8028,51.9321 100.0008,55.6541 100.4798,56.6531 C100.9588,57.6561 101.8618,60.4721 100.7658,62.5721 C99.6688,64.6761 96.7098,66.9131 97.3308,67.9651 C97.9508,69.0171 100.9068,73.0731 101.6268,72.2601 C102.3418,71.4491 103.7238,67.4871 104.4388,65.5781 C105.1558,63.6711 106.6358,61.0001 105.3988,57.4221 C104.1538,53.8421 102.0538,49.1611 101.8618,48.4491 C101.6748,47.7291 101.4808,46.9691 102.5808,46.2501 C102.5808,46.2501 112.3158,38.2331 116.0398,37.3761 C119.7608,36.5161 122.7668,35.2261 124.2008,34.3701 C125.6308,33.5081 127.6848,33.5081 128.3048,33.5081 C128.9238,33.5081 131.6448,34.1321 132.5998,33.0311 C133.5548,31.9331 136.1778,28.0691 135.1758,27.9271" id="Fill-30"></path>
        </g>
    </g>
</svg>