<?xml version="1.0" encoding="UTF-8"?>
<svg width="22px" height="47px" viewBox="0 0 22 47" version="1.1" xmlns="http://www.w3.org/2000/svg" xmlns:xlink="http://www.w3.org/1999/xlink">
    <!-- Generator: Sketch 50.2 (55047) - http://www.bohemiancoding.com/sketch -->
    <title>scroll</title>
    <desc>Created with Sketch.</desc>
    <defs></defs>
    <g id="home" stroke="none" stroke-width="1" fill="none" fill-rule="evenodd">
        <g id="KLIM" transform="translate(-709.000000, -702.000000)" fill="#1D1D1D">
            <g id="Header" transform="translate(-41.000000, 34.000000)">
                <path d="M750.466,679.434 C750.466,677.532657 750.941329,675.777008 751.892,674.167 C752.842671,672.556992 754.122992,671.276671 755.733,670.326 C757.343008,669.375329 759.098657,668.9 761,668.9 C762.901343,668.9 764.656992,669.375329 766.267,670.326 C767.877008,671.276671 769.157329,672.556992 770.108,674.167 C771.058671,675.777008 771.534,677.532657 771.534,679.434 L771.534,696.96 C771.534,698.585341 771.189003,700.110993 770.499,701.537 C769.808997,702.963007 768.850673,704.174328 767.624,705.171 C766.397327,706.167672 765.017341,706.849998 763.484,707.218 L763.484,705.746 C765.41601,705.193997 767.01066,704.113008 768.268,702.503 C769.52534,700.892992 770.154,699.045344 770.154,696.96 L770.154,679.434 C770.154,677.777992 769.740004,676.25234 768.912,674.857 C768.083996,673.46166 766.97234,672.350004 765.577,671.522 C764.18166,670.693996 762.656008,670.28 761,670.28 C759.343992,670.28 757.81834,670.693996 756.423,671.522 C755.02766,672.350004 753.923671,673.46166 753.111,674.857 C752.298329,676.25234 751.892,677.777992 751.892,679.434 L751.892,697.006 C751.892,699.060677 752.512994,700.892992 753.755,702.503 C754.997006,704.113008 756.58399,705.193997 758.516,705.746 L758.516,707.218 C756.982659,706.849998 755.602673,706.167672 754.376,705.171 C753.149327,704.174328 752.191003,702.970674 751.501,701.56 C750.810997,700.149326 750.466,698.616008 750.466,696.96 L750.466,679.434 L750.466,679.434 Z M759.942,710.3 L759.942,698.57 C759.942,698.355332 760.010999,698.179001 760.149,698.041 C760.287001,697.902999 760.463332,697.834 760.678,697.834 L761.322,697.834 C761.536668,697.834 761.712999,697.902999 761.851,698.041 C761.989001,698.179001 762.058,698.355332 762.058,698.57 L762.058,710.3 L765.186,710.3 C765.400668,710.3 765.523333,710.346 765.554,710.438 C765.584667,710.53 765.538667,710.652666 765.416,710.806 L761.506,714.67 C761.383333,714.823334 761.214668,714.9 761,714.9 C760.785332,714.9 760.616667,714.823334 760.494,714.67 L756.584,710.806 C756.461333,710.652666 756.415333,710.53 756.446,710.438 C756.476667,710.346 756.599332,710.3 756.814,710.3 L759.942,710.3 Z M761.322,679.342 L760.678,679.342 C760.463332,679.342 760.287001,679.273001 760.149,679.135 C760.010999,678.996999 759.942,678.820668 759.942,678.606 L759.942,674.282 C759.942,674.097999 760.010999,673.929334 760.149,673.776 C760.287001,673.622666 760.463332,673.546 760.678,673.546 L761.322,673.546 C761.536668,673.546 761.712999,673.622666 761.851,673.776 C761.989001,673.929334 762.058,674.097999 762.058,674.282 L762.058,678.606 C762.058,678.820668 761.989001,678.996999 761.851,679.135 C761.712999,679.273001 761.536668,679.342 761.322,679.342 L761.322,679.342 Z" id="scroll"></path>
            </g>
        </g>
    </g>
</svg>